<?xml version="1.0" encoding="UTF-8"?>
<svg id="a" data-name="GradeWise Imposter" xmlns="http://www.w3.org/2000/svg" xmlns:xlink="http://www.w3.org/1999/xlink" viewBox="0 0 2500 2500">
  <defs>
    <style>
      .e, .f, .g, .h {
        fill: none;
        stroke-linecap: round;
        stroke-linejoin: round;
      }

      .e, .g {
        stroke: #fff;
      }

      .e, .h {
        stroke-width: 116.36px;
      }

      .f, .g {
        stroke-width: 127.89px;
      }

      .f, .h {
        stroke: #ccc;
      }

      .i {
        filter: url(#d);
      }

      .j {
        mask: url(#c);
      }

      .k {
        fill: url(#b);
      }
    </style>
    <linearGradient id="b" x1="-121.33" y1="759.26" x2="2733.43" y2="1780.86" gradientUnits="userSpaceOnUse">
      <stop offset="0" stop-color="#00ff6d"/>
      <stop offset="1" stop-color="#0081ff"/>
    </linearGradient>
    <filter id="d" x="496.54" y="554.42" width="1684.72" height="1446.95" color-interpolation-filters="sRGB" filterUnits="userSpaceOnUse">
      <feFlood flood-color="#fff" result="bg"/>
      <feBlend in="SourceGraphic" in2="bg"/>
    </filter>
    <mask id="c" data-name="mask" x="496.54" y="554.42" width="1684.72" height="1446.95" maskUnits="userSpaceOnUse">
      <g class="i">
        <path d="M2180.51,1145.98l-20.1,188.7c-5.47,51.32-39.93,94.95-88.6,112.14-43.98,15.54-92.49,7.01-128.36-21.73l-409.16,409.16c-25.12,25.12-59.2,39.24-94.74,39.24s-69.61-14.12-94.74-39.24l-207.84-207.85-335.74,335.74c-25.13,25.12-59.21,39.24-94.74,39.24s-69.62-14.11-94.74-39.24c-25.13-25.13-39.24-59.21-39.24-94.75s14.11-69.61,39.24-94.74l430.47-430.47c25.13-25.13,59.21-39.24,94.75-39.24s69.61,14.12,94.74,39.24l207.84,207.84,314.42-314.41c-28.73-35.87-37.27-84.38-21.73-128.36,17.19-48.67,60.82-83.13,112.14-88.6l188.7-20.1c40.27-4.29,80.3,9.86,108.93,38.49,28.63,28.63,42.78,68.67,38.49,108.93Z"/>
      </g>
    </mask>
  </defs>
  <rect class="k" width="2500" height="2500" rx="650" ry="650"/>
  <g>
    <g>
      <path class="h" d="M1097.19,1203.94c30.67,13.99,65.91,13.99,96.58,0l498.6-227.36c13.39-5.87,24.09-16.56,29.95-29.95,12.89-29.43-.52-63.74-29.95-76.63l-498.6-226.9c-30.67-13.99-65.91-13.99-96.58,0l-498.65,227.13c-13.78,5.74-24.83,16.56-30.85,30.22-12.97,29.4.35,63.74,29.75,76.71l499.76,226.78Z"/>
      <path class="h" d="M563.69,1373.08v-449.56"/>
      <polyline class="f" points="1815.82 1341.13 1756.57 1281.88 1945.28 1261.78 1925.18 1450.49 1840.88 1366.19 1447.56 1759.5 1272.91 1584.86 1144.97 1456.92 714.49 1887.4"/>
    </g>
    <g>
      <g class="j">
        <g>
          <path class="h" d="M796.41,1052.97v314.21c0,96.39,156.29,174.54,349.08,174.54,192.79,0,349.08-78.14,349.08-174.54v-314.21"/>
          <path class="e" d="M1089.19,1183.94c30.67,13.99,65.91,13.99,96.58,0l498.6-227.36c13.39-5.87,24.09-16.56,29.95-29.95,12.89-29.43-.52-63.74-29.95-76.63l-498.6-226.9c-30.67-13.99-65.91-13.99-96.58,0l-498.65,227.13c-13.78,5.74-24.83,16.56-30.85,30.22-12.97,29.4.35,63.74,29.75,76.71l499.76,226.78Z"/>
          <path class="e" d="M555.69,1353.08v-449.56"/>
          <path class="e" d="M788.41,1049.97v287.21c0,96.39,156.29,174.54,349.08,174.54,192.79,0,349.08-78.14,349.08-174.54v-287.21"/>
        </g>
      </g>
      <polyline class="g" points="1807.82 1321.13 1748.57 1261.88 1937.28 1241.78 1917.18 1430.49 1832.88 1346.19 1439.56 1739.5 1264.91 1564.86 1136.97 1436.92 706.49 1867.4"/>
    </g>
  </g>
</svg>